<svg id="share-icon-Link" xmlns="http://www.w3.org/2000/svg" width="35" height="35" viewBox="0 0 35 35">
  <g id="Rectangle_10563" data-name="Rectangle 10563" fill="#fff" stroke="#ccc" stroke-width="1">
    <rect width="35" height="35" rx="5" stroke="none"/>
    <rect x="0.5" y="0.5" width="34" height="34" rx="4.5" fill="none"/>
  </g>
  <path id="link" d="M9.657,16.873,7.964,18.518A2.367,2.367,0,1,1,4.617,15.17l4.342-4.352a2.353,2.353,0,0,1,3.242-.086l.115.1A.957.957,0,0,0,13.655,9.46a2.63,2.63,0,0,0-.172-.2,4.266,4.266,0,0,0-5.825.21l-4.4,4.352a4.285,4.285,0,0,0,6.054,6.054l1.655-1.616a.956.956,0,0,0-1.31-1.387ZM19.881,3.253a4.294,4.294,0,0,0-6.054,0L12.173,4.87a.956.956,0,0,0,1.31,1.387l1.655-1.645a2.367,2.367,0,1,1,3.348,3.348l-4.342,4.352A2.353,2.353,0,0,1,10.9,12.4l-.115-.1a.957.957,0,0,0-1.339,1.368,2.63,2.63,0,0,0,.22.2,4.275,4.275,0,0,0,5.825-.21l4.352-4.352a4.294,4.294,0,0,0,.038-6.054Z" transform="translate(5.871 5.995)" fill="#32a4bf"/>
</svg>
