<svg id="share-icon-Line" xmlns="http://www.w3.org/2000/svg" width="35" height="35" viewBox="0 0 35 35">
  <g id="Rectangle_10561" data-name="Rectangle 10561" fill="#fff" stroke="#ccc" stroke-width="1">
    <rect width="35" height="35" rx="5" stroke="none"/>
    <rect x="0.5" y="0.5" width="34" height="34" rx="4.5" fill="none"/>
  </g>
  <g id="Group_15147" data-name="Group 15147" transform="translate(-2.052 -3.179)">
    <g id="Group_13" data-name="Group 13" transform="translate(7.677 9.55)">
      <path id="Path_70" data-name="Path 70" d="M31.809,19.317c0-5.363-5.427-9.767-12.066-9.767s-12.066,4.4-12.066,9.767c0,4.852,4.277,8.874,10.087,9.641.383.063.957.255,1.085.575a3.119,3.119,0,0,1,.063,1.085s-.127.83-.192,1.021c-.063.32-.255,1.213,1.022.639a37.092,37.092,0,0,0,9.448-7.022h0A8.162,8.162,0,0,0,31.809,19.317ZM15.465,22.19a.275.275,0,0,1-.256.256H11.826a.235.235,0,0,1-.192-.064h0a.236.236,0,0,1-.063-.192h0V16.955a.275.275,0,0,1,.255-.256h.894a.275.275,0,0,1,.255.256v4.15h2.3a.275.275,0,0,1,.256.255v.83Zm2.043,0a.275.275,0,0,1-.256.256h-.83a.275.275,0,0,1-.256-.256V16.955a.275.275,0,0,1,.256-.256h.83a.275.275,0,0,1,.256.256Zm5.874,0a.275.275,0,0,1-.256.256h-.894l-.064-.064-2.49-3.256v3.129a.274.274,0,0,1-.255.255h-.83a.274.274,0,0,1-.255-.255V17.019a.274.274,0,0,1,.255-.256h.83L21.85,20.02V16.891a.274.274,0,0,1,.255-.255h.83a.275.275,0,0,1,.256.255v5.3Zm4.66-4.4a.275.275,0,0,1-.256.255h-2.3v.894h2.3a.275.275,0,0,1,.256.256v.83a.275.275,0,0,1-.256.255h-2.3v.894h2.3a.275.275,0,0,1,.256.256v.83a.275.275,0,0,1-.256.255H24.4a.236.236,0,0,1-.192-.063h0a.235.235,0,0,1-.064-.192h0V17.019h0a.233.233,0,0,1,.064-.192h0a.234.234,0,0,1,.192-.064h3.384a.275.275,0,0,1,.256.256Z" transform="translate(-7.677 -9.55)" fill="#26c300"/>
    </g>
  </g>
</svg>
