<svg width="22" height="27" viewBox="0 0 22 27" fill="none" xmlns="http://www.w3.org/2000/svg">
<path d="M18.2563 14.3561C18.1689 14.2693 18.0652 14.2006 17.9513 14.1539C17.8373 14.1071 17.7152 14.0833 17.5921 14.0837C17.4689 14.0842 17.347 14.1089 17.2333 14.1564C17.1197 14.204 17.0165 14.2734 16.9297 14.3608C16.843 14.4482 16.7742 14.5519 16.7275 14.6659C16.6807 14.7798 16.6569 14.9019 16.6573 15.0251C16.6578 15.1483 16.6825 15.2702 16.73 15.3838C16.7776 15.4974 16.847 15.6006 16.9344 15.6874C17.7277 16.4723 18.3574 17.4067 18.7871 18.4366C19.2167 19.4665 19.4378 20.5715 19.4376 21.6874C19.4376 22.8311 16.1469 24.4999 11.0001 24.4999C5.85318 24.4999 2.56256 22.8311 2.56256 21.6874C2.56107 20.5788 2.77806 19.4808 3.20113 18.4561C3.62419 17.4314 4.24504 16.5001 5.02818 15.7155C5.20279 15.5399 5.3008 15.3023 5.3008 15.0546C5.3008 14.8069 5.20279 14.5693 5.02818 14.3936C4.85253 14.219 4.61492 14.121 4.36725 14.121C4.11957 14.121 3.88196 14.219 3.70631 14.3936C2.74547 15.3491 1.98387 16.4858 1.46567 17.7379C0.947477 18.9899 0.682993 20.3324 0.687558 21.6874C0.687558 24.7343 6.00318 26.3749 11.0001 26.3749C15.9969 26.3749 21.3126 24.7343 21.3126 21.6874C21.3162 20.3236 21.0477 18.9727 20.5229 17.7139C19.9982 16.4551 19.2276 15.3136 18.2563 14.3561Z" fill="#333333" stroke="#333333" stroke-width="0.6"/>
<path d="M11 14.125C12.2979 14.125 13.5667 13.7401 14.6459 13.019C15.7251 12.2979 16.5663 11.273 17.063 10.0739C17.5597 8.87472 17.6896 7.55522 17.4364 6.28222C17.1832 5.00922 16.5582 3.8399 15.6404 2.92211C14.7226 2.00433 13.5533 1.37932 12.2803 1.1261C11.0073 0.872884 9.68778 1.00284 8.48864 1.49954C7.2895 1.99624 6.26458 2.83738 5.54348 3.91657C4.82238 4.99577 4.4375 6.26456 4.4375 7.5625C4.4375 9.30299 5.1289 10.9722 6.35961 12.2029C7.59032 13.4336 9.25952 14.125 11 14.125ZM11 2.875C11.9271 2.875 12.8334 3.14992 13.6042 3.66499C14.3751 4.18006 14.9759 4.91215 15.3307 5.76867C15.6855 6.6252 15.7783 7.5677 15.5974 8.47699C15.4166 9.38627 14.9701 10.2215 14.3146 10.8771C13.659 11.5326 12.8238 11.9791 11.9145 12.1599C11.0052 12.3408 10.0627 12.248 9.20617 11.8932C8.34964 11.5384 7.61756 10.9376 7.10249 10.1667C6.58742 9.39588 6.3125 8.4896 6.3125 7.5625C6.3125 6.3193 6.80636 5.12702 7.68544 4.24794C8.56451 3.36886 9.7568 2.875 11 2.875Z" fill="#333333" stroke="#333333" stroke-width="0.6"/>
</svg>
